<?xml version="1.0" encoding="iso-8859-1"?>
<!-- Generator: Adobe Illustrator 19.0.0, SVG Export Plug-In . SVG Version: 6.00 Build 0)  -->
<svg version="1.1" id="Layer_1" xmlns="http://www.w3.org/2000/svg" xmlns:xlink="http://www.w3.org/1999/xlink" x="0px" y="0px"
	 viewBox="0 0 490.4 490.4" style="enable-background:new 0 0 490.4 490.4;" xml:space="preserve">
<circle style="fill:#343A3A;" cx="245.2" cy="311.2" r="179.2"/>
<path style="fill:#777777;" d="M98.8,300.8c-4-60.8,42.4-112.8,102.4-116"/>
<path style="fill:#1E2323;" d="M371.6,184c70.4,70.4,70.4,183.2,0,253.6s-183.2,70.4-253.6,0"/>
<path style="fill:#343A3A;" d="M333.2,148.8c0,17.6-14.4,32-32,32h-112c-17.6,0-32-14.4-32-32l0,0c0-17.6,14.4-32,32-32h112
	C318.8,116.8,333.2,131.2,333.2,148.8L333.2,148.8z"/>
<path style="fill:#1E2323;" d="M333.2,148.8L333.2,148.8c0,18.4-13.6,32-32,32h-112c-18.4,0-32-13.6-32-32l0,0"/>
<path style="fill:#E88813;" d="M253.2,108.8h-24V49.6c0-14.4-11.2-24.8-24.8-24.8C190,24.8,179.6,36,179.6,52h-24.8
	c0-32,21.6-52,49.6-52S254,20.8,254,48.8v60H253.2z"/>
<path style="fill:#BC5E00;" d="M203.6,0.8c28,0,49.6,20.8,49.6,48.8v59.2h-24V49.6c0-14.4-11.2-24.8-24.8-24.8"/>
<circle style="fill:#E88813;" cx="166.8" cy="64.8" r="20"/>
<path style="fill:#BC5E00;" d="M180.4,51.2c8,8,8,20,0,28s-20,8-28,0"/>
<g>
	<path style="fill:#CEE0C7;" d="M134,72.8c0,2.4-1.6,4.8-4,4.8l-42.4,7.2c-2.4,0-4.8-1.6-4.8-4l0,0c0-2.4,1.6-4.8,4-4.8l42.4-6.4
		C131.6,68.8,134,70.4,134,72.8L134,72.8z"/>
	<path style="fill:#CEE0C7;" d="M140.4,44.8c-1.6,1.6-4,2.4-6.4,0.8L99.6,20.8c-1.6-1.6-2.4-4-0.8-6.4l0,0c1.6-2.4,4-2.4,6.4-0.8
		l34.4,25.6C141.2,40,142,43.2,140.4,44.8L140.4,44.8z"/>
	<path style="fill:#CEE0C7;" d="M148.4,97.6c-1.6-1.6-4.8-0.8-6.4,0.8l-25.6,34.4c-1.6,1.6-0.8,4.8,0.8,6.4l0,0
		c1.6,1.6,4.8,0.8,6.4-0.8l25.6-34.4C150.8,102.4,150,99.2,148.4,97.6L148.4,97.6z"/>
</g>
<g>
</g>
<g>
</g>
<g>
</g>
<g>
</g>
<g>
</g>
<g>
</g>
<g>
</g>
<g>
</g>
<g>
</g>
<g>
</g>
<g>
</g>
<g>
</g>
<g>
</g>
<g>
</g>
<g>
</g>
</svg>
