<?xml version="1.0" encoding="iso-8859-1"?>
<!-- Generator: Adobe Illustrator 19.0.0, SVG Export Plug-In . SVG Version: 6.00 Build 0)  -->
<svg version="1.1" id="Layer_1" xmlns="http://www.w3.org/2000/svg" xmlns:xlink="http://www.w3.org/1999/xlink" x="0px" y="0px"
	 viewBox="0 0 512 512" style="enable-background:new 0 0 512 512;" xml:space="preserve">
<g transform="translate(1)">
	<g>
		<polygon style="fill:#63D3FD;" points="92.867,119.467 212.333,119.467 212.333,68.267 92.867,68.267 		"/>
		<polygon style="fill:#63D3FD;" points="297.667,119.467 417.133,119.467 417.133,68.267 297.667,68.267 		"/>
		<polygon style="fill:#63D3FD;" points="92.867,170.667 212.333,170.667 212.333,119.467 92.867,119.467 		"/>
		<polygon style="fill:#63D3FD;" points="297.667,170.667 417.133,170.667 417.133,119.467 297.667,119.467 		"/>
	</g>
	<g>
		<polygon style="fill:#FFE100;" points="7.533,221.867 92.867,221.867 92.867,34.133 7.533,34.133 		"/>
		<polygon style="fill:#FFE100;" points="212.333,221.867 297.667,221.867 297.667,34.133 212.333,34.133 		"/>
		<polygon style="fill:#FFE100;" points="417.133,221.867 502.467,221.867 502.467,34.133 417.133,34.133 		"/>
		<polygon style="fill:#FFE100;" points="7.533,477.867 502.467,477.867 502.467,221.867 7.533,221.867 		"/>
	</g>
	<g>
		<polygon style="fill:#FFA800;" points="476.867,213.333 502.467,213.333 502.467,25.6 476.867,25.6 		"/>
		<polygon style="fill:#FFA800;" points="476.867,469.333 502.467,469.333 502.467,213.333 476.867,213.333 		"/>
	</g>
	<g>
		<polygon style="fill:#FFFFFF;" points="7.533,221.867 33.133,221.867 33.133,34.133 7.533,34.133 		"/>
		<polygon style="fill:#FFFFFF;" points="7.533,477.867 33.133,477.867 33.133,221.867 7.533,221.867 		"/>
	</g>
	<path style="fill:#FFE100;" d="M306.2,273.067L306.2,273.067c0,28.16-23.04,51.2-51.2,51.2s-51.2-23.04-51.2-51.2H58.733v153.6
		h392.533v-153.6H306.2z"/>
	<path style="fill:#63D3FD;" d="M255,324.267L255,324.267c-28.16,0-51.2-23.04-51.2-51.2v-51.2h102.4v51.2
		C306.2,301.227,283.16,324.267,255,324.267"/>
	<path d="M502.467,486.4H7.533c-5.12,0-8.533-3.413-8.533-8.533v-256c0-5.12,3.413-8.533,8.533-8.533h494.933
		c5.12,0,8.533,3.413,8.533,8.533v256C511,482.987,507.587,486.4,502.467,486.4z M16.067,469.333h477.867V230.4H16.067V469.333z"/>
	<path d="M92.867,230.4H7.533c-5.12,0-8.533-3.413-8.533-8.533V34.133c0-5.12,3.413-8.533,8.533-8.533h85.333
		c5.12,0,8.533,3.413,8.533,8.533v187.733C101.4,226.987,97.987,230.4,92.867,230.4z M16.067,213.333h68.267V42.667H16.067V213.333z
		"/>
	<path d="M297.667,230.4h-85.333c-5.12,0-8.533-3.413-8.533-8.533V34.133c0-5.12,3.413-8.533,8.533-8.533h85.333
		c5.12,0,8.533,3.413,8.533,8.533v187.733C306.2,226.987,302.787,230.4,297.667,230.4z M220.867,213.333h68.267V42.667h-68.267
		V213.333z"/>
	<path d="M502.467,230.4h-85.333c-5.12,0-8.533-3.413-8.533-8.533V34.133c0-5.12,3.413-8.533,8.533-8.533h85.333
		c5.12,0,8.533,3.413,8.533,8.533v187.733C511,226.987,507.587,230.4,502.467,230.4z M425.667,213.333h68.267V42.667h-68.267
		V213.333z"/>
	<path d="M212.333,128H92.867c-5.12,0-8.533-3.413-8.533-8.533v-51.2c0-5.12,3.413-8.533,8.533-8.533h119.467
		c5.12,0,8.533,3.413,8.533,8.533v51.2C220.867,124.587,217.453,128,212.333,128z M101.4,110.933h102.4V76.8H101.4V110.933z"/>
	<path d="M417.133,128H297.667c-5.12,0-8.533-3.413-8.533-8.533v-51.2c0-5.12,3.413-8.533,8.533-8.533h119.467
		c5.12,0,8.533,3.413,8.533,8.533v51.2C425.667,124.587,422.253,128,417.133,128z M306.2,110.933h102.4V76.8H306.2V110.933z"/>
	<path d="M212.333,179.2H92.867c-5.12,0-8.533-3.413-8.533-8.533v-51.2c0-5.12,3.413-8.533,8.533-8.533h119.467
		c5.12,0,8.533,3.413,8.533,8.533v51.2C220.867,175.787,217.453,179.2,212.333,179.2z M101.4,162.133h102.4V128H101.4V162.133z"/>
	<path d="M417.133,179.2H297.667c-5.12,0-8.533-3.413-8.533-8.533v-51.2c0-5.12,3.413-8.533,8.533-8.533h119.467
		c5.12,0,8.533,3.413,8.533,8.533v51.2C425.667,175.787,422.253,179.2,417.133,179.2z M306.2,162.133h102.4V128H306.2V162.133z"/>
	<path d="M255,332.8c-33.28,0-59.733-26.453-59.733-59.733v-51.2c0-5.12,3.413-8.533,8.533-8.533h102.4
		c5.12,0,8.533,3.413,8.533,8.533v51.2C314.733,306.347,288.28,332.8,255,332.8z M212.333,230.4v42.667
		c0,23.893,18.773,42.667,42.667,42.667s42.667-18.773,42.667-42.667V230.4H212.333z"/>
	<path d="M289.133,392.533h-68.267c-5.12,0-8.533-3.413-8.533-8.533c0-5.12,3.413-8.533,8.533-8.533h68.267
		c5.12,0,8.533,3.413,8.533,8.533C297.667,389.12,294.253,392.533,289.133,392.533z"/>
	<path d="M195.267,384c0,5.12-3.413,8.533-8.533,8.533c-5.12,0-8.533-3.413-8.533-8.533c0-5.12,3.413-8.533,8.533-8.533
		C191.853,375.467,195.267,378.88,195.267,384"/>
	<path d="M152.6,392.533h-51.2c-5.12,0-8.533-3.413-8.533-8.533c0-5.12,3.413-8.533,8.533-8.533h51.2
		c5.12,0,8.533,3.413,8.533,8.533C161.133,389.12,157.72,392.533,152.6,392.533z"/>
	<path d="M408.6,392.533h-51.2c-5.12,0-8.533-3.413-8.533-8.533c0-5.12,3.413-8.533,8.533-8.533h51.2
		c5.12,0,8.533,3.413,8.533,8.533C417.133,389.12,413.72,392.533,408.6,392.533z"/>
	<path d="M331.8,384c0,5.12-3.413,8.533-8.533,8.533c-5.12,0-8.533-3.413-8.533-8.533c0-5.12,3.413-8.533,8.533-8.533
		C328.387,375.467,331.8,378.88,331.8,384"/>
	<path d="M348.867,324.267h-25.6c-5.12,0-8.533-3.413-8.533-8.533c0-5.12,3.413-8.533,8.533-8.533h25.6
		c5.12,0,8.533,3.413,8.533,8.533C357.4,320.853,353.987,324.267,348.867,324.267z"/>
	<path d="M391.533,315.733c0,5.12-3.413,8.533-8.533,8.533c-5.12,0-8.533-3.413-8.533-8.533c0-5.12,3.413-8.533,8.533-8.533
		C388.12,307.2,391.533,310.613,391.533,315.733"/>
	<path d="M195.267,315.733c0,5.12-3.413,8.533-8.533,8.533c-5.12,0-8.533-3.413-8.533-8.533c0-5.12,3.413-8.533,8.533-8.533
		C191.853,307.2,195.267,310.613,195.267,315.733"/>
	<path d="M152.6,324.267h-51.2c-5.12,0-8.533-3.413-8.533-8.533c0-5.12,3.413-8.533,8.533-8.533h51.2
		c5.12,0,8.533,3.413,8.533,8.533C161.133,320.853,157.72,324.267,152.6,324.267z"/>
	<path d="M186.733,358.4h-51.2c-5.12,0-8.533-3.413-8.533-8.533c0-5.12,3.413-8.533,8.533-8.533h51.2
		c5.12,0,8.533,3.413,8.533,8.533C195.267,354.987,191.853,358.4,186.733,358.4z"/>
	<path d="M92.867,349.867c0-5.12,3.413-8.533,8.533-8.533c5.12,0,8.533,3.413,8.533,8.533c0,5.12-3.413,8.533-8.533,8.533
		C96.28,358.4,92.867,354.987,92.867,349.867"/>
	<path d="M400.067,349.867c0-5.12,3.413-8.533,8.533-8.533c5.12,0,8.533,3.413,8.533,8.533c0,5.12-3.413,8.533-8.533,8.533
		C403.48,358.4,400.067,354.987,400.067,349.867"/>
	<path d="M374.467,358.4h-34.133c-5.12,0-8.533-3.413-8.533-8.533c0-5.12,3.413-8.533,8.533-8.533h34.133
		c5.12,0,8.533,3.413,8.533,8.533C383,354.987,379.587,358.4,374.467,358.4z"/>
	<path d="M297.667,349.867c0-5.12,3.413-8.533,8.533-8.533s8.533,3.413,8.533,8.533c0,5.12-3.413,8.533-8.533,8.533
		S297.667,354.987,297.667,349.867"/>
	<path d="M212.333,349.867c0-5.12,3.413-8.533,8.533-8.533c5.12,0,8.533,3.413,8.533,8.533c0,5.12-3.413,8.533-8.533,8.533
		C215.747,358.4,212.333,354.987,212.333,349.867"/>
	<path d="M272.067,358.4H255c-5.12,0-8.533-3.413-8.533-8.533c0-5.12,3.413-8.533,8.533-8.533h17.067
		c5.12,0,8.533,3.413,8.533,8.533C280.6,354.987,277.187,358.4,272.067,358.4z"/>
	<path d="M272.067,264.533h-34.133c-5.12,0-8.533-3.413-8.533-8.533c0-5.12,3.413-8.533,8.533-8.533h34.133
		c5.12,0,8.533,3.413,8.533,8.533C280.6,261.12,277.187,264.533,272.067,264.533z"/>
	<path d="M255,298.667c-5.12,0-8.533-3.413-8.533-8.533V256c0-5.12,3.413-8.533,8.533-8.533s8.533,3.413,8.533,8.533v34.133
		C263.533,295.253,260.12,298.667,255,298.667z"/>
	<path d="M451.267,435.2H58.733c-5.12,0-8.533-3.413-8.533-8.533v-153.6c0-5.12,3.413-8.533,8.533-8.533H203.8
		c5.12,0,8.533,3.413,8.533,8.533c0,23.893,18.773,42.667,42.667,42.667s42.667-18.773,42.667-42.667
		c0-5.12,3.413-8.533,8.533-8.533h145.067c5.12,0,8.533,3.413,8.533,8.533v153.6C459.8,431.787,456.387,435.2,451.267,435.2z
		 M67.267,418.133h375.467V281.6H313.88c-4.267,29.013-29.013,51.2-58.88,51.2s-54.613-22.187-58.88-51.2H67.267V418.133z"/>
</g>
<g>
</g>
<g>
</g>
<g>
</g>
<g>
</g>
<g>
</g>
<g>
</g>
<g>
</g>
<g>
</g>
<g>
</g>
<g>
</g>
<g>
</g>
<g>
</g>
<g>
</g>
<g>
</g>
<g>
</g>
</svg>
