<?xml version="1.0" encoding="iso-8859-1"?>
<!-- Generator: Adobe Illustrator 19.0.0, SVG Export Plug-In . SVG Version: 6.00 Build 0)  -->
<svg version="1.1" id="Layer_1" xmlns="http://www.w3.org/2000/svg" xmlns:xlink="http://www.w3.org/1999/xlink" x="0px" y="0px"
	 viewBox="0 0 512 512" style="enable-background:new 0 0 512 512;" xml:space="preserve">
<g>
	<g>
		<g>
			<path d="M460.8,307.198c0-1.575-0.024-3.146-0.06-4.714c-0.01-0.444-0.025-0.888-0.038-1.332
				c-0.035-1.198-0.08-2.394-0.136-3.588c-0.019-0.413-0.037-0.825-0.059-1.238c-0.17-3.235-0.417-6.453-0.737-9.653
				c-0.017-0.172-0.036-0.344-0.054-0.517c-0.16-1.562-0.338-3.118-0.534-4.671c-0.009-0.068-0.017-0.136-0.025-0.204
				c-9.319-73.42-57.738-136.217-126.357-163.975V67.191c14.723-3.789,25.6-17.152,25.6-33.058C358.4,15.281,343.119,0,324.267,0
				H187.733C168.881,0,153.6,15.281,153.6,34.133c0,15.906,10.877,29.269,25.6,33.058v50.117
				c-68.619,27.758-117.038,90.555-126.357,163.975c-0.009,0.068-0.017,0.136-0.025,0.204c-0.195,1.552-0.373,3.109-0.534,4.671
				c-0.018,0.172-0.037,0.344-0.054,0.517c-0.32,3.2-0.567,6.418-0.737,9.653c-0.022,0.412-0.04,0.825-0.059,1.238
				c-0.056,1.194-0.101,2.389-0.136,3.588c-0.013,0.444-0.028,0.888-0.038,1.332c-0.036,1.568-0.06,3.139-0.06,4.714
				c0,0,0,0.001,0,0.001s0,0.001,0,0.001C51.2,420.312,142.888,512,256,512s204.8-91.688,204.8-204.8
				C460.8,307.2,460.8,307.199,460.8,307.198C460.8,307.199,460.8,307.199,460.8,307.198z M256,494.932
				c-103.686,0-187.733-84.047-187.733-187.733c0-1.372,0.018-2.742,0.048-4.11c0.009-0.414,0.025-0.826,0.036-1.24
				c0.028-0.971,0.06-1.942,0.102-2.911c0.02-0.452,0.043-0.904,0.066-1.355c0.049-0.966,0.105-1.931,0.169-2.895
				c0.027-0.4,0.053-0.8,0.082-1.2c0.083-1.144,0.177-2.286,0.281-3.426c0.018-0.197,0.033-0.395,0.052-0.592
				c1.647-17.4,5.711-34.359,12.044-50.536h61.626c-7.648,14.466-12.604,30.572-14.203,47.656c-0.022,0.236-0.042,0.473-0.063,0.71
				c-0.085,0.963-0.159,1.928-0.222,2.897c-0.023,0.343-0.045,0.686-0.065,1.029c-0.052,0.907-0.092,1.818-0.125,2.73
				c-0.013,0.341-0.029,0.682-0.039,1.023c-0.035,1.226-0.056,2.455-0.056,3.689c0,70.693,57.307,128,128,128s128-57.307,128-128
				c0-1.234-0.022-2.463-0.056-3.689c-0.01-0.342-0.026-0.682-0.039-1.023c-0.033-0.912-0.073-1.823-0.125-2.73
				c-0.02-0.343-0.043-0.686-0.065-1.029c-0.063-0.969-0.137-1.934-0.222-2.897c-0.021-0.237-0.041-0.474-0.063-0.71
				c-1.599-17.084-6.555-33.19-14.203-47.656h61.626c6.333,16.177,10.397,33.136,12.044,50.536c0.019,0.197,0.034,0.395,0.052,0.592
				c0.104,1.14,0.198,2.282,0.281,3.426c0.029,0.4,0.055,0.8,0.082,1.2c0.064,0.964,0.12,1.929,0.169,2.895
				c0.023,0.452,0.046,0.903,0.066,1.355c0.042,0.969,0.075,1.939,0.102,2.911c0.012,0.413,0.027,0.826,0.036,1.24
				c0.03,1.368,0.048,2.738,0.048,4.11C443.733,410.885,359.686,494.932,256,494.932z M145.14,294.817
				c0.01-0.289,0.021-0.579,0.033-0.868c0.112-2.645,0.313-5.275,0.61-7.884c0.013-0.117,0.026-0.233,0.04-0.35
				c2.132-18.206,8.737-35.427,19.211-50.43c0.193-0.276,0.351-0.561,0.506-0.846c20.106-28.267,53.129-46.705,90.459-46.705
				c37.33,0,70.354,18.439,90.46,46.706c0.155,0.285,0.313,0.57,0.506,0.846c10.474,15.004,17.079,32.225,19.211,50.43
				c0.014,0.117,0.027,0.233,0.04,0.35c0.297,2.609,0.498,5.238,0.61,7.884c0.012,0.289,0.023,0.578,0.033,0.868
				c0.044,1.28,0.074,2.563,0.074,3.85c0,61.267-49.666,110.933-110.933,110.933s-110.933-49.666-110.933-110.933
				C145.067,297.379,145.096,296.097,145.14,294.817z M170.667,34.133c0-9.427,7.64-17.067,17.067-17.067h136.533
				c9.427,0,17.067,7.64,17.067,17.067c0,9.421-7.631,17.057-17.05,17.066c-0.006,0-0.011-0.001-0.017-0.001H187.733
				c-0.006,0-0.011,0.001-0.017,0.001C178.297,51.19,170.667,43.555,170.667,34.133z M190.702,131.152
				c3.345-1.241,5.565-4.432,5.565-8V68.267h119.467v54.885c0,3.568,2.22,6.759,5.565,8c44.901,16.662,80.882,49.494,101.932,90.715
				h-64.825c-23.353-31.089-60.53-51.2-102.406-51.2s-79.053,20.111-102.406,51.2H88.77
				C109.82,180.646,145.801,147.814,190.702,131.152z"/>
			<path d="M250.665,382.077c3.358,2.741,8.237,2.529,11.345-0.492c3.427-3.332,6.439-6.263,10.929-10.642
				c7.123-6.945,14.167-13.832,20.753-20.294c0.246-0.241,0.246-0.241,0.491-0.482c15.089-14.811,25.6-25.266,29.763-29.677
				c32.996-34.944,16.749-90.09-29.459-90.09c-15.452,0-29.239,7.532-38.505,19.161c-9.269-11.629-23.053-19.161-38.5-19.161
				c-46.115,0-62.563,56.581-29.333,90.229C200.893,333.531,247.697,379.654,250.665,382.077z M217.482,247.467
				c13.409,0,25.295,9.128,30.613,22.026c2.904,7.043,12.879,7.04,15.78-0.004c5.309-12.895,17.195-22.022,30.612-22.022
				c29.845,0,40.568,36.399,17.049,61.307c-3.947,4.182-14.417,14.597-29.307,29.213c-0.245,0.241-0.245,0.241-0.49,0.481
				c-6.571,6.448-13.603,13.322-20.713,20.256c-1.897,1.85-3.53,3.441-5.041,4.912c-13.178-12.793-45.947-45.135-55.692-55
				C176.929,284.98,187.834,247.467,217.482,247.467z"/>
		</g>
	</g>
</g>
<g>
</g>
<g>
</g>
<g>
</g>
<g>
</g>
<g>
</g>
<g>
</g>
<g>
</g>
<g>
</g>
<g>
</g>
<g>
</g>
<g>
</g>
<g>
</g>
<g>
</g>
<g>
</g>
<g>
</g>
</svg>
